#N canvas 24 330 296 172 10;
#X obj 39 26 inlet~;
#X obj 39 74 snapshot~;
#X obj 39 95 int;
#X obj 49 48 r \$1-metro;
#X obj 39 116 s \$1-\$2;
#X obj 120 72 switch~;
#X obj 120 48 r \$1-outSwitchMetro;
#X connect 0 0 1 0;
#X connect 1 0 2 0;
#X connect 2 0 4 0;
#X connect 3 0 1 0;
#X connect 6 0 5 0;
