#N canvas 464 27 338 301 10;
#X obj 81 -1 inlet~;
#X obj 30 20 samphold~;
#X obj 30 -1 noise~;
#X obj 291 37 z~;
#X obj 30 60 expr~ if($v1 == $v2 \, 0 \, if($v1 >= 0 \, 1 \, -1));
#X obj 170 211 fexpr~ $x[0] + $y[-1];
#X msg 178 190 set 0;
#X obj 170 238 outlet~;
#X obj 178 83 inlet;
#X obj 178 167 sel 1;
#X obj 187 146 switch~;
#X obj 178 104 != 0;
#X obj 178 125 change;
#X connect 0 0 1 1;
#X connect 1 0 3 0;
#X connect 1 0 4 0;
#X connect 2 0 1 0;
#X connect 3 0 4 1;
#X connect 4 0 5 0;
#X connect 5 0 7 0;
#X connect 6 0 5 0;
#X connect 8 0 11 0;
#X connect 9 0 6 0;
#X connect 11 0 12 0;
#X connect 12 0 10 0;
#X connect 12 0 9 0;
