#N canvas 764 567 520 60 10;
#X floatatom -104 15 6 0 1 0 pan: #0-inInitPan #0-outInitPan;
#X floatatom -332 15 6 0 1e+07 0 samp: #0-inInitSamps #0-outInitSamps
;
#X floatatom -218 15 6 -2048 2047 0 amp: #0-inInitAmp #0-outInitAmp
;
#X obj -104 5 bng 8 250 50 0 \$0-learnPan \$0-nothing empty 17 7 0
10 -228856 -1 -1;
#X obj -218 5 bng 8 250 50 0 \$0-learnAmp \$0-nothing empty 17 7 0
10 -228856 -1 -1;
#X obj -332 5 bng 8 250 50 0 \$0-learnSamps \$0-nothing empty 17 7
0 10 -228856 -1 -1;
#X floatatom -290 15 6 0 0 0 - #0-visSamps #0-nothing2;
#X obj 42 15 tgl 16 0 \$0-outSwitchMetro \$0-inSwitchMetro monitor
20 8 0 10 -228856 -1 -1 1 1;
#X floatatom -176 15 6 0 0 0 - #0-visAmp #0-nothing2;
#X floatatom -62 15 6 0 0 0 - #0-visPan #0-nothing2;
#X obj -17 5 bng 8 250 50 0 \$0-learnGo \$0-nothing empty 17 7 0 10
-228856 -1 -1;
#X obj -18 15 tgl 16 0 \$0-outGo \$0-inGo active 20 8 0 10 -228856
-1 -1 1 1;
#X obj 43 5 bng 8 250 50 0 \$0-learnMonitor \$0-nothing empty 17 7
0 10 -228856 -1 -1;
#N canvas 363 22 471 483 p 0;
#X obj 108 4 samplerate~;
#X obj 108 44 /;
#X msg 108 24 1 \$1;
#X obj 12 156 z~;
#X obj 87 64 *~ 1;
#X obj 72 84 /~;
#X obj 87 -36 r~ \$0-freqloop;
#X obj 43 57 sig~ 1;
#X obj 72 104 phasor~ 1;
#X obj 35 207 *~;
#X obj 162 346 *~;
#X obj 217 346 *~;
#X obj 177 258 q8_sqrt~;
#X obj 232 257 q8_sqrt~;
#N canvas 0 22 194 142 pulse 0;
#X obj 7 76 expr~ if($v1 > $v2 \, 0 \, 1);
#X obj 154 53 z~;
#X obj 7 6 inlet~;
#X obj 7 106 outlet~;
#X connect 0 0 3 0;
#X connect 1 0 0 1;
#X connect 2 0 0 0;
#X connect 2 0 1 0;
#X restore 12 178 pd pulse;
#N canvas 251 308 314 270 amplitude 0;
#X obj 61 -11 inlet~;
#X obj 10 10 samphold~;
#X obj 10 -11 noise~;
#X obj 271 27 z~;
#X obj 10 50 expr~ if($v1 == $v2 \, 0 \, if($v1 >= 0 \, 1 \, -1));
#X obj 10 123 fexpr~ $x[0] + $y[-1];
#X obj 10 220 outlet~;
#X msg 20 97 set \$1;
#X obj 20 76 r \$0-outInitAmp;
#X obj 10 198 /~ 2048;
#X text 65 198 <-- 12 bit resolution (4096/2);
#X obj 20 173 a.pulseVisInt \$0 visAmp;
#X obj 10 146 mirrorWall~ -2048 2047;
#X connect 0 0 1 1;
#X connect 1 0 3 0;
#X connect 1 0 4 0;
#X connect 2 0 1 0;
#X connect 3 0 4 1;
#X connect 4 0 5 0;
#X connect 5 0 12 0;
#X connect 7 0 5 0;
#X connect 8 0 7 0;
#X connect 9 0 6 0;
#X connect 12 0 9 0;
#X connect 12 0 11 0;
#X restore 72 178 pd amplitude;
#N canvas 1 148 384 291 pan 0;
#X obj 63 9 inlet~;
#X obj 12 30 samphold~;
#X obj 12 9 noise~;
#X obj 202 146 fexpr~ $x[0] + $y[-1];
#X obj 309 47 z~;
#X obj 202 221 outlet~;
#X msg 213 121 set \$1;
#X obj 213 100 r \$0-outInitPan;
#X obj 12 67 expr~ if($v1 == $v2 \, 0 \, if($v1 >= 0 \, 0.01 \, -0.01))
;
#X text 23 48 resolucion de 100 pasos (0.01);
#X obj 212 196 a.pulseVisFloat \$0 visPan;
#X obj 202 169 mirrorWall~ 0 1;
#X connect 0 0 1 1;
#X connect 1 0 4 0;
#X connect 1 0 8 0;
#X connect 2 0 1 0;
#X connect 3 0 11 0;
#X connect 4 0 8 1;
#X connect 6 0 3 0;
#X connect 7 0 6 0;
#X connect 8 0 3 0;
#X connect 11 0 5 0;
#X connect 11 0 10 0;
#X restore 208 179 pd pan;
#X obj 232 236 abs~;
#X obj 232 216 -~ 1;
#N canvas 752 464 375 307 freq 0;
#X obj 66 20 inlet~;
#X obj 15 52 samphold~;
#X obj 15 21 noise~;
#X obj 276 69 z~;
#X obj 15 92 expr~ if($v1 == $v2 \, 0 \, if($v1 >= 0 \, 1 \, -1));
#X msg 152 136 set \$1;
#X obj 145 170 fexpr~ abs($x[0] + $y[-1]);
#X obj 145 192 +~ 3;
#X obj 145 241 s~ \$0-freqloop;
#X obj 152 116 r \$0-outInitSamps;
#X obj 153 216 a.pulseVisInt \$0 visSamps;
#X connect 0 0 1 1;
#X connect 1 0 3 0;
#X connect 1 0 4 0;
#X connect 2 0 1 0;
#X connect 3 0 4 1;
#X connect 4 0 6 0;
#X connect 5 0 6 0;
#X connect 6 0 7 0;
#X connect 7 0 8 0;
#X connect 7 0 10 0;
#X connect 9 0 5 0;
#X restore 155 178 pd freq;
#X obj 182 410 dac~ 1 2;
#X obj 227 387 *~;
#X obj 172 387 *~;
#X obj 35 227 lop~ 12000;
#X obj 35 247 lop~ 12000;
#X obj 35 267 lop~ 12000;
#X obj 35 287 lop~ 12000;
#X obj 319 28 \$0;
#X obj 319 -16 loadbang;
#X obj 329 8 bng 15 250 50 0 empty empty empty 17 7 0 10 -262144 -1
-1;
#X obj 319 221 s \$0-metro;
#X obj 319 200 metro 400;
#X obj 108 -16 r \$0-loadbang;
#X obj 248 300 r \$0-outGo;
#X obj 248 348 line~;
#X msg 248 326 \$1 20;
#X obj 319 178 r \$0-outSwitchMetro;
#X msg 319 50 \; \$1-loadbang bang \; \$1-inInitAmp 1000 \; \$1-inInitSamps
100 \; \$1-inInitPan 0.5 \; \$1-inSwitchMetro 1 \; \$1-inGo 1;
#X obj 335 283 r globalInitSamps;
#X obj 335 305 s \$0-inInitSamps;
#X obj 336 328 r globalGo;
#X obj 336 349 s \$0-inGo;
#X obj 335 370 r globalMonitor;
#X obj 335 391 s \$0-inSwitchMetro;
#X connect 0 0 2 0;
#X connect 1 0 4 1;
#X connect 2 0 1 0;
#X connect 3 0 14 0;
#X connect 4 0 5 1;
#X connect 5 0 8 0;
#X connect 6 0 4 0;
#X connect 7 0 5 0;
#X connect 8 0 19 0;
#X connect 8 0 15 0;
#X connect 8 0 16 0;
#X connect 8 0 3 0;
#X connect 9 0 23 0;
#X connect 10 0 22 0;
#X connect 11 0 21 0;
#X connect 12 0 10 1;
#X connect 13 0 11 1;
#X connect 14 0 9 0;
#X connect 15 0 9 1;
#X connect 16 0 12 0;
#X connect 16 0 18 0;
#X connect 17 0 13 0;
#X connect 18 0 17 0;
#X connect 21 0 20 1;
#X connect 22 0 20 0;
#X connect 23 0 24 0;
#X connect 24 0 25 0;
#X connect 25 0 26 0;
#X connect 26 0 10 0;
#X connect 26 0 11 0;
#X connect 27 0 37 0;
#X connect 28 0 27 0;
#X connect 29 0 27 0;
#X connect 31 0 30 0;
#X connect 32 0 0 0;
#X connect 33 0 35 0;
#X connect 34 0 21 1;
#X connect 34 0 22 1;
#X connect 35 0 34 0;
#X connect 36 0 31 0;
#X connect 38 0 39 0;
#X connect 40 0 41 0;
#X connect 42 0 43 0;
#X restore 106 14 pd p;
#X coords 0 60 1 59 120 20 0;
